<svg id="mermaid-1615988985222" width="100%" xmlns="http://www.w3.org/2000/svg" xmlns:xlink="http://www.w3.org/1999/xlink" height="878" style="max-width: 1054.3833618164062px;" viewBox="-20 -20 1054.3833618164062 878"><style>#mermaid-1615988985222{font-family:"trebuchet ms",verdana,arial,sans-serif;font-size:16px;fill:#333;}#mermaid-1615988985222 .error-icon{fill:#552222;}#mermaid-1615988985222 .error-text{fill:#552222;stroke:#552222;}#mermaid-1615988985222 .edge-thickness-normal{stroke-width:2px;}#mermaid-1615988985222 .edge-thickness-thick{stroke-width:3.5px;}#mermaid-1615988985222 .edge-pattern-solid{stroke-dasharray:0;}#mermaid-1615988985222 .edge-pattern-dashed{stroke-dasharray:3;}#mermaid-1615988985222 .edge-pattern-dotted{stroke-dasharray:2;}#mermaid-1615988985222 .marker{fill:#333333;stroke:#333333;}#mermaid-1615988985222 .marker.cross{stroke:#333333;}#mermaid-1615988985222 svg{font-family:"trebuchet ms",verdana,arial,sans-serif;font-size:16px;}#mermaid-1615988985222 g.classGroup text{fill:#9370DB;fill:#131300;stroke:none;font-family:"trebuchet ms",verdana,arial,sans-serif;font-size:10px;}#mermaid-1615988985222 g.classGroup text .title{font-weight:bolder;}#mermaid-1615988985222 .classTitle{font-weight:bolder;}#mermaid-1615988985222 .node rect,#mermaid-1615988985222 .node circle,#mermaid-1615988985222 .node ellipse,#mermaid-1615988985222 .node polygon,#mermaid-1615988985222 .node path{fill:#ECECFF;stroke:#9370DB;stroke-width:1px;}#mermaid-1615988985222 .divider{stroke:#9370DB;stroke:1;}#mermaid-1615988985222 g.clickable{cursor:pointer;}#mermaid-1615988985222 g.classGroup rect{fill:#ECECFF;stroke:#9370DB;}#mermaid-1615988985222 g.classGroup line{stroke:#9370DB;stroke-width:1;}#mermaid-1615988985222 .classLabel .box{stroke:none;stroke-width:0;fill:#ECECFF;opacity:0.5;}#mermaid-1615988985222 .classLabel .label{fill:#9370DB;font-size:10px;}#mermaid-1615988985222 .relation{stroke:#333333;stroke-width:1;fill:none;}#mermaid-1615988985222 .dashed-line{stroke-dasharray:3;}#mermaid-1615988985222 #compositionStart,#mermaid-1615988985222 .composition{fill:#333333 !important;stroke:#333333 !important;stroke-width:1;}#mermaid-1615988985222 #compositionEnd,#mermaid-1615988985222 .composition{fill:#333333 !important;stroke:#333333 !important;stroke-width:1;}#mermaid-1615988985222 #dependencyStart,#mermaid-1615988985222 .dependency{fill:#333333 !important;stroke:#333333 !important;stroke-width:1;}#mermaid-1615988985222 #dependencyStart,#mermaid-1615988985222 .dependency{fill:#333333 !important;stroke:#333333 !important;stroke-width:1;}#mermaid-1615988985222 #extensionStart,#mermaid-1615988985222 .extension{fill:#333333 !important;stroke:#333333 !important;stroke-width:1;}#mermaid-1615988985222 #extensionEnd,#mermaid-1615988985222 .extension{fill:#333333 !important;stroke:#333333 !important;stroke-width:1;}#mermaid-1615988985222 #aggregationStart,#mermaid-1615988985222 .aggregation{fill:#ECECFF !important;stroke:#333333 !important;stroke-width:1;}#mermaid-1615988985222 #aggregationEnd,#mermaid-1615988985222 .aggregation{fill:#ECECFF !important;stroke:#333333 !important;stroke-width:1;}#mermaid-1615988985222 .edgeTerminals{font-size:11px;}#mermaid-1615988985222:root{--mermaid-font-family:"trebuchet ms",verdana,arial,sans-serif;}#mermaid-1615988985222 class{fill:apa;}</style><g></g><defs><marker id="extensionStart" class="extension" refX="0" refY="7" markerWidth="190" markerHeight="240" orient="auto"><path d="M 1,7 L18,13 V 1 Z"></path></marker></defs><defs><marker id="extensionEnd" refX="19" refY="7" markerWidth="20" markerHeight="28" orient="auto"><path d="M 1,1 V 13 L18,7 Z"></path></marker></defs><defs><marker id="compositionStart" class="extension" refX="0" refY="7" markerWidth="190" markerHeight="240" orient="auto"><path d="M 18,7 L9,13 L1,7 L9,1 Z"></path></marker></defs><defs><marker id="compositionEnd" refX="19" refY="7" markerWidth="20" markerHeight="28" orient="auto"><path d="M 18,7 L9,13 L1,7 L9,1 Z"></path></marker></defs><defs><marker id="aggregationStart" class="extension" refX="0" refY="7" markerWidth="190" markerHeight="240" orient="auto"><path d="M 18,7 L9,13 L1,7 L9,1 Z"></path></marker></defs><defs><marker id="aggregationEnd" refX="19" refY="7" markerWidth="20" markerHeight="28" orient="auto"><path d="M 18,7 L9,13 L1,7 L9,1 Z"></path></marker></defs><defs><marker id="dependencyStart" class="extension" refX="0" refY="7" markerWidth="190" markerHeight="240" orient="auto"><path d="M 5,7 L9,13 L1,7 L9,1 Z"></path></marker></defs><defs><marker id="dependencyEnd" refX="19" refY="7" markerWidth="20" markerHeight="28" orient="auto"><path d="M 18,7 L9,13 L14,7 L9,1 Z"></path></marker></defs><g id="classid-Registry-3149" class="classGroup" transform="translate(334.17917251586914,0 )"><rect x="0" y="0" width="136.23332977294922" height="101" class=" "></rect><text y="15" x="0"><tspan class="title" x="49.25000190734863">Registry</tspan></text><line x1="0" y1="22" y2="22" x2="136.23333740234375"></line><text x="5" y="32" fill="white" class="classText"><tspan x="5">+set instances</tspan><tspan x="5" dy="10">-list _class_instances</tspan></text><line x1="0" y1="49" y2="49" x2="136.23333740234375"></line><text x="5" y="64" fill="white" class="classText"><tspan x="5">+print_instances()</tspan><tspan x="5" dy="10">+get_instances() : set</tspan><tspan x="5" dy="10">+get_num_instances() : int</tspan><tspan x="5" dy="10">+reset()</tspan></text></g><g id="classid-Magnet-3150" class="classGroup" transform="translate(355.295841217041,151 )"><rect x="0" y="0" width="94" height="53.5" class=" "></rect><text y="15" x="0"><tspan class="title" x="30.29166603088379">Magnet</tspan></text><line x1="0" y1="22" y2="22" x2="94"></line><text x="5" y="32" fill="white" class="classText"><tspan x="5">+float tol</tspan><tspan x="5" dy="10">+String mag_type</tspan></text><line x1="0" y1="49" y2="49" x2="94"></line><text x="5" y="64" fill="white" class="classText"></text></g><g id="classid-Magnet_2D-3151" class="classGroup" transform="translate(123.89167022705078,294.5 )"><rect x="0" y="0" width="107.55000305175781" height="101" class=" "></rect><text y="15" x="0"><tspan class="title" x="27.983335494995117">Magnet_2D</tspan></text><line x1="0" y1="22" y2="22" x2="107.55000305175781"></line><text x="5" y="32" fill="white" class="classText"><tspan x="5">+float Jr</tspan><tspan x="5" dy="10">+float alpha</tspan><tspan x="5" dy="10">+float alpha_radians</tspan><tspan x="5" dy="10">+float xc</tspan><tspan x="5" dy="10">+float yc</tspan></text><line x1="0" y1="79" y2="79" x2="107.55000305175781"></line><text x="5" y="94" fill="white" class="classText"><tspan x="5">+center() : ndarray</tspan></text></g><g id="classid-Rectangle-3152" class="classGroup" transform="translate(0,535.5 )"><rect x="0" y="0" width="152.6666717529297" height="171" class=" "></rect><text y="15" x="0"><tspan class="title" x="53.38333511352539">Rectangle</tspan></text><line x1="0" y1="22" y2="22" x2="152.6666717529297"></line><text x="5" y="32" fill="white" class="classText"><tspan x="5">+float width</tspan><tspan x="5" dy="10">+float height</tspan><tspan x="5" dy="10">+float phi</tspan><tspan x="5" dy="10">+float phi_rad</tspan><tspan x="5" dy="10">+float Jx</tspan><tspan x="5" dy="10">+float Jy</tspan></text><line x1="0" y1="89" y2="89" x2="152.6666717529297"></line><text x="5" y="104" fill="white" class="classText"><tspan x="5">+size() : ndarray</tspan><tspan x="5" dy="10">+get_Jr() : ndarray</tspan><tspan x="5" dy="10">+calcB(x,y) : Tuple</tspan><tspan x="5" dy="10">-_calcBx_mag_x(x,y) : ndarray</tspan><tspan x="5" dy="10">-_calcBy_mag_x(x,y) : ndarray</tspan><tspan x="5" dy="10">-_calcBx_mag_y(x,y) : ndarray</tspan><tspan x="5" dy="10">-_calcBy_mag_y(x,y) : ndarray</tspan></text></g><g id="classid-Square-3153" class="classGroup" transform="translate(54.73333549499512,806.5 )"><rect x="0" y="0" width="43.20000076293945" height="31.5" class=" "></rect><text y="15" x="0"><tspan class="title" x="5.5">Square</tspan></text><line x1="0" y1="22" y2="22" x2="43.20000076293945"></line><text x="5" y="32" fill="white" class="classText"></text><line x1="0" y1="27" y2="27" x2="43.20000076293945"></line><text x="5" y="42" fill="white" class="classText"></text></g><g id="classid-Circle-3154" class="classGroup" transform="translate(202.6666717529297,575.5 )"><rect x="0" y="0" width="152.6666717529297" height="91" class=" "></rect><text y="15" x="0"><tspan class="title" x="62.74166965484619">Circle</tspan></text><line x1="0" y1="22" y2="22" x2="152.6666717529297"></line><text x="5" y="32" fill="white" class="classText"><tspan x="5">+float radius</tspan><tspan x="5" dy="10">+float phi</tspan><tspan x="5" dy="10">+float phi_rad</tspan></text><line x1="0" y1="59" y2="59" x2="152.6666717529297"></line><text x="5" y="74" fill="white" class="classText"><tspan x="5">+calcB(x,y) : tuple</tspan><tspan x="5" dy="10">-_calcB_polar(rho, phi) : tuple</tspan></text></g><g id="classid-Magnet_3D-3155" class="classGroup" transform="translate(612.6583480834961,254.5 )"><rect x="0" y="0" width="231.1999969482422" height="181" class=" "></rect><text y="15" x="0"><tspan class="title" x="89.8083324432373">Magnet_3D</tspan></text><line x1="0" y1="22" y2="22" x2="231.1999969482422"></line><text x="5" y="32" fill="white" class="classText"><tspan x="5">+float Jr</tspan><tspan x="5" dy="10">+float xc</tspan><tspan x="5" dy="10">+float yc</tspan><tspan x="5" dy="10">+float zc</tspan><tspan x="5" dy="10">+float alpha</tspan><tspan x="5" dy="10">+float beta</tspan><tspan x="5" dy="10">+float gamma</tspan><tspan x="5" dy="10">+float alpha_rad</tspan><tspan x="5" dy="10">+float beta_rad</tspan><tspan x="5" dy="10">+float gamma_rad</tspan></text><line x1="0" y1="129" y2="129" x2="231.1999969482422"></line><text x="5" y="144" fill="white" class="classText"><tspan x="5">+center() : ndarray</tspan><tspan x="5" dy="10">-_generate_rotation_quaternions() : Quaternion</tspan><tspan x="5" dy="10">+calcB(x,y,z) : tuple</tspan><tspan x="5" dy="10">-_calcB_local(x,y,z) : tuple</tspan></text></g><g id="classid-Prism-3156" class="classGroup" transform="translate(405.3333435058594,485.5 )"><rect x="0" y="0" width="206.25" height="271" class=" "></rect><text y="15" x="0"><tspan class="title" x="90.11666679382324">Prism</tspan></text><line x1="0" y1="22" y2="22" x2="206.25"></line><text x="5" y="32" fill="white" class="classText"><tspan x="5">+float width</tspan><tspan x="5" dy="10">+float depth</tspan><tspan x="5" dy="10">+float height</tspan><tspan x="5" dy="10">+float a</tspan><tspan x="5" dy="10">+float b</tspan><tspan x="5" dy="10">+float c</tspan><tspan x="5" dy="10">+float phi</tspan><tspan x="5" dy="10">+float phi_rad</tspan><tspan x="5" dy="10">+float theta</tspan><tspan x="5" dy="10">+float theta_rad</tspan><tspan x="5" dy="10">+float Jx</tspan><tspan x="5" dy="10">+float Jy</tspan><tspan x="5" dy="10">+float Jz</tspan></text><line x1="0" y1="159" y2="159" x2="206.25"></line><text x="5" y="174" fill="white" class="classText"><tspan x="5">+get_Jr() : ndarray</tspan><tspan x="5" dy="10">+size() : ndarray</tspan><tspan x="5" dy="10">-_F1(a,b,c,x,y,z) : ndarray</tspan><tspan x="5" dy="10">-_F2(a,b,c,x,y,z) : ndarray</tspan><tspan x="5" dy="10">-_calcBx_prism_x(a,b,c,Jr,x,y,z) : ndarray</tspan><tspan x="5" dy="10">-_calcBy_prism_x(a,b,c,Jr,x,y,z) : ndarray</tspan><tspan x="5" dy="10">-_calcBz_prism_x(a,b,c,Jr,x,y,z) : ndarray</tspan><tspan x="5" dy="10">-_calcBx_prism_x(x,y,z) : tuple</tspan><tspan x="5" dy="10">-_calcBx_prism_y(x,y,z) : tuple</tspan><tspan x="5" dy="10">-_calcBx_prism_z(x,y,z) : tuple</tspan></text></g><g id="classid-Cube-3157" class="classGroup" transform="translate(491.16667556762695,806.5 )"><rect x="0" y="0" width="34.58333396911621" height="31.5" class=" "></rect><text y="15" x="0"><tspan class="title" x="5.500000953674316">Cube</tspan></text><line x1="0" y1="22" y2="22" x2="34.583335876464844"></line><text x="5" y="32" fill="white" class="classText"></text><line x1="0" y1="27" y2="27" x2="34.583335876464844"></line><text x="5" y="42" fill="white" class="classText"></text></g><g id="classid-Cylinder-3158" class="classGroup" transform="translate(661.5833435058594,580.5 )"><rect x="0" y="0" width="133.3499984741211" height="81" class=" "></rect><text y="15" x="0"><tspan class="title" x="47.125003814697266">Cylinder</tspan></text><line x1="0" y1="22" y2="22" x2="133.35000610351562"></line><text x="5" y="32" fill="white" class="classText"><tspan x="5">+float radius</tspan><tspan x="5" dy="10">+float length</tspan></text><line x1="0" y1="49" y2="49" x2="133.35000610351562"></line><text x="5" y="64" fill="white" class="classText"><tspan x="5">-_cel(kc,p,c,s) : ndarray</tspan><tspan x="5" dy="10">-_calcB_cyl(rho, z) : tuple</tspan></text></g><g id="classid-Sphere-3159" class="classGroup" transform="translate(844.933349609375,565.5 )"><rect x="0" y="0" width="169.4499969482422" height="111" class=" "></rect><text y="15" x="0"><tspan class="title" x="68.39999771118164">Sphere</tspan></text><line x1="0" y1="22" y2="22" x2="169.4499969482422"></line><text x="5" y="32" fill="white" class="classText"><tspan x="5">+float radius</tspan><tspan x="5" dy="10">+float phi</tspan><tspan x="5" dy="10">+float phi_rad</tspan><tspan x="5" dy="10">+float theta</tspan><tspan x="5" dy="10">+float theta_rad</tspan></text><line x1="0" y1="79" y2="79" x2="169.4499969482422"></line><text x="5" y="94" fill="white" class="classText"><tspan x="5">-_rotate_and_calcB(x,y,z) : tuple</tspan><tspan x="5" dy="10">-_calcB_spherical(r, theta) : tuple</tspan></text></g><path d="M402.295841217041,101L402.295841217041,105.16666666666667C402.295841217041,109.33333333333333,402.295841217041,117.66666666666667,402.295841217041,126C402.295841217041,134.33333333333334,402.295841217041,142.66666666666666,402.295841217041,146.83333333333334L402.295841217041,151" id="edge1215" class="relation" marker-start="url(#extensionStart)"></path><path d="M355.295841217041,188.5778457593131L325.69097963968915,195.3982047994276C296.0861180623372,202.21856383954207,236.87639490763345,215.859281919771,207.27153333028158,233.51297429321883C177.6666717529297,251.16666666666666,177.6666717529297,272.8333333333333,177.6666717529297,283.6666666666667L177.6666717529297,294.5" id="edge1216" class="relation" marker-start="url(#extensionStart)"></path><path d="M133.36075433508142,395.5L123.85618459197866,406.3333333333333C114.3516148488759,417.1666666666667,95.34247536267037,438.8333333333333,85.83790561956761,462.1666666666667C76.33333587646484,485.5,76.33333587646484,510.5,76.33333587646484,523L76.33333587646484,535.5" id="edge1217" class="relation" marker-start="url(#extensionStart)"></path><path d="M76.33333587646484,706.5L76.33333587646484,719C76.33333587646484,731.5,76.33333587646484,756.5,76.33333587646484,773.1666666666666C76.33333587646484,789.8333333333334,76.33333587646484,798.1666666666666,76.33333587646484,802.3333333333334L76.33333587646484,806.5" id="edge1218" class="relation" marker-start="url(#extensionStart)"></path><path d="M221.97258917077795,395.5L231.47715891388074,406.3333333333333C240.98172865698348,417.1666666666667,259.990868143189,438.8333333333333,269.49543788629177,468.8333333333333C279.00000762939453,498.8333333333333,279.00000762939453,537.1666666666666,279.00000762939453,556.3333333333334L279.00000762939453,575.5" id="edge1219" class="relation" marker-start="url(#extensionStart)"></path><path d="M449.295841217041,185.21174777819525L495.789592107137,192.59312314849603C542.283342997233,199.97449851879682,635.2708447774252,214.7372492593984,681.7645956675211,226.2852912963659C728.2583465576172,237.83333333333334,728.2583465576172,246.16666666666666,728.2583465576172,250.33333333333334L728.2583465576172,254.5" id="edge1220" class="relation" marker-start="url(#extensionStart)"></path><path d="M612.6583480834961,405.7452212847192L595.29168065389,414.8710177372661C577.9250132242838,423.9968141898128,543.1916783650717,442.24840709490644,525.8250109354655,455.5408702141199C508.4583435058594,468.8333333333333,508.4583435058594,477.1666666666667,508.4583435058594,481.3333333333333L508.4583435058594,485.5" id="edge1221" class="relation" marker-start="url(#extensionStart)"></path><path d="M508.4583435058594,756.5L508.4583435058594,760.6666666666666C508.4583435058594,764.8333333333334,508.4583435058594,773.1666666666666,508.4583435058594,781.5C508.4583435058594,789.8333333333334,508.4583435058594,798.1666666666666,508.4583435058594,802.3333333333334L508.4583435058594,806.5" id="edge1222" class="relation" marker-start="url(#extensionStart)"></path><path d="M728.2583465576172,435.5L728.2583465576172,439.6666666666667C728.2583465576172,443.8333333333333,728.2583465576172,452.1666666666667,728.2583465576172,476.3333333333333C728.2583465576172,500.5,728.2583465576172,540.5,728.2583465576172,560.5L728.2583465576172,580.5" id="edge1223" class="relation" marker-start="url(#extensionStart)"></path><path d="M843.8583450317383,411.29493407449326L858.1583455403646,419.49577839541104C872.4583460489908,427.6966227163289,901.0583470662435,444.09831135816444,915.3583475748698,469.79915567908216C929.6583480834961,495.5,929.6583480834961,530.5,929.6583480834961,548L929.6583480834961,565.5" id="edge1224" class="relation" marker-start="url(#extensionStart)"></path></svg>